HIERARCHY
ROOT Hips
{
	OFFSET -0.001795 -0.223333 0.028219
	CHANNELS 6 Xposition Yposition Zposition Zrotation Yrotation Xrotation 
	JOINT LeftUpLeg
	{
		OFFSET 0.069520 -0.091406 -0.006815
		CHANNELS 3 Zrotation Yrotation Xrotation
		JOINT LeftLeg
		{
			OFFSET 0.034277 -0.375199 -0.004496
			CHANNELS 3 Zrotation Yrotation Xrotation
			JOINT LeftFoot
			{
				OFFSET -0.013596 -0.397961 -0.043693
				CHANNELS 3 Zrotation Yrotation Xrotation
				JOINT LeftToe
				{
					OFFSET 0.026358 -0.055791 0.119288
					CHANNELS 3 Zrotation Yrotation Xrotation
					End Site
					{
						OFFSET 0.000000 0.000000 0.000000
					}
				}
			}
		}
	}
	JOINT RightUpLeg
	{
		OFFSET -0.067670 -0.090522 -0.004320
		CHANNELS 3 Zrotation Yrotation Xrotation
		JOINT RightLeg
		{
			OFFSET -0.038290 -0.382569 -0.008850
			CHANNELS 3 Zrotation Yrotation Xrotation
			JOINT RightFoot
			{
				OFFSET 0.015774 -0.398415 -0.042312
				CHANNELS 3 Zrotation Yrotation Xrotation
				JOINT RightToe
				{
					OFFSET -0.025372 -0.048144 0.123348
					CHANNELS 3 Zrotation Yrotation Xrotation
					End Site
					{
						OFFSET 0.000000 0.000000 0.000000
					}
				}
			}
		}
	}
	JOINT Spine
	{
		OFFSET -0.002533 0.108963 -0.026696
		CHANNELS 3 Zrotation Yrotation Xrotation
		JOINT Spine1
		{
			OFFSET 0.005487 0.135180 0.001092
			CHANNELS 3 Zrotation Yrotation Xrotation
			JOINT Spine2
			{
				OFFSET 0.001457 0.052922 0.025425
				CHANNELS 3 Zrotation Yrotation Xrotation
				JOINT Neck
				{
					OFFSET -0.002778 0.213870 -0.042857
					CHANNELS 3 Zrotation Yrotation Xrotation
					JOINT Head
					{
						OFFSET 0.005152 0.064970 0.051349
						CHANNELS 3 Zrotation Yrotation Xrotation
						End Site
						{
							OFFSET 0.000000 0.000000 0.000000
						}
					}
				}
				JOINT LeftShoulder
				{
					OFFSET 0.078845 0.121749 -0.034090
					CHANNELS 3 Zrotation Yrotation Xrotation
					JOINT LeftArm
					{
						OFFSET 0.090977 0.030469 -0.008868
						CHANNELS 3 Zrotation Yrotation Xrotation
						JOINT LeftForeArm
						{
							OFFSET 0.259612 -0.012772 -0.027456
							CHANNELS 3 Zrotation Yrotation Xrotation
							JOINT LeftHand
							{
								OFFSET 0.249234 0.008986 -0.001171
								CHANNELS 3 Zrotation Yrotation Xrotation
								End Site
								{
									OFFSET 0.000000 0.000000 0.000000
								}
							}
						}
					}
				}
				JOINT RightShoulder
				{
					OFFSET -0.081759 0.118833 -0.038615
					CHANNELS 3 Zrotation Yrotation Xrotation
					JOINT RightArm
					{
						OFFSET -0.096012 0.032551 -0.009143
						CHANNELS 3 Zrotation Yrotation Xrotation
						JOINT RightForeArm
						{
							OFFSET -0.253742 -0.013329 -0.021401
							CHANNELS 3 Zrotation Yrotation Xrotation
							JOINT RightHand
							{
								OFFSET -0.255298 0.007772 -0.005559
								CHANNELS 3 Zrotation Yrotation Xrotation
								End Site
								{
									OFFSET 0.000000 0.000000 0.000000
								}
							}
						}
					}
				}
			}
		}
	}
}
MOTION
Frames: 13
Frame Time: 0.050000
0.000000 0.983211 0.000000 4.469352 -12.880945 -10.306167 9.725165 4.202956 -57.002999 -14.696604 16.201094 76.913346 6.414328 14.009812 8.718225 0.000000 0.000000 0.000000 -0.919095 -0.617830 10.960946 0.412788 0.658971 12.367884 0.419174 -4.781170 9.570073 0.000000 0.000000 0.000000 -9.275944 1.549394 22.302322 6.191587 -1.008295 -26.335379 3.005269 10.884796 30.426600 -2.746981 3.804474 -17.628370 0.000000 0.000000 0.000000 -26.623677 5.606700 -5.818999 -54.873267 1.215142 -9.807344 -4.743320 -27.460633 2.710773 0.000000 0.000000 0.000000 18.527269 3.903722 1.805938 59.373768 8.146446 -4.982302 2.423223 32.757385 2.708486 0.000000 0.000000 0.000000 
-0.001012 0.976736 0.017629 2.837333 -12.494245 -9.520506 9.161489 3.870089 -58.851327 -13.118374 13.740630 75.203907 5.124628 12.108721 10.174708 0.000000 0.000000 0.000000 0.645859 -0.881071 11.770220 -0.348185 0.775030 12.076437 1.460259 -3.994895 12.136917 0.000000 0.000000 0.000000 -9.279727 1.641705 23.468373 7.814963 -0.856907 -29.989338 4.807652 10.260997 33.243868 -2.751476 3.852538 -19.803097 0.000000 0.000000 0.000000 -27.240214 5.543814 -5.714576 -55.597337 2.059182 -10.618269 -7.448286 -27.402937 3.453109 0.000000 0.000000 0.000000 16.576236 2.390952 1.037373 60.000590 6.051897 -6.304820 4.838464 36.773528 4.019182 0.000000 0.000000 0.000000 
-0.000486 0.968228 0.037267 2.116962 -11.888070 -7.876255 8.651466 3.352057 -59.314149 -12.540104 12.771347 74.439984 3.374277 8.693953 7.268616 0.000000 0.000000 0.000000 0.078612 -0.792008 10.964010 1.937112 0.445063 14.056396 0.658172 -4.714895 10.744087 0.000000 0.000000 0.000000 -8.157791 1.192600 21.392939 6.264020 -0.916647 -27.026788 4.315963 9.428887 31.667826 -3.134912 3.962439 -18.665476 0.000000 0.000000 0.000000 -27.670659 3.974426 -4.679477 -54.748301 1.522935 -10.117839 -6.889383 -27.169898 3.246585 0.000000 0.000000 0.000000 20.132004 3.754654 1.636710 57.198152 6.555642 -5.836642 0.787495 35.527109 2.466297 0.000000 0.000000 0.000000 
0.001175 0.963397 0.059409 1.917233 -13.449280 -7.658170 8.207171 3.451099 -57.450662 -11.160450 12.299244 74.782090 4.194601 9.323100 3.801417 0.000000 0.000000 0.000000 -0.453330 -0.700520 11.283211 1.577184 0.722470 16.329615 1.417805 -2.204258 8.429247 0.000000 0.000000 0.000000 -9.065923 1.535678 22.134713 7.951174 -1.062084 -28.769333 3.967185 10.948702 34.478322 -3.327859 4.313972 -19.887602 0.000000 0.000000 0.000000 -28.059594 3.791565 -4.711474 -54.947987 -0.374046 -9.610738 -7.215051 -26.914945 3.332136 0.000000 0.000000 0.000000 20.537138 4.534923 2.350068 56.825546 7.820810 -5.612124 0.821954 35.421257 2.581668 0.000000 0.000000 0.000000 
0.004361 0.967711 0.083696 1.688434 -14.671523 -5.929517 7.715326 3.181265 -54.275302 -9.807035 11.216043 71.699927 4.627080 9.073509 -0.789592 0.000000 0.000000 0.000000 -1.360548 -0.523960 10.685353 1.140271 0.905465 16.904567 2.708168 0.420691 8.207439 0.000000 0.000000 0.000000 -9.677796 1.626219 20.729248 7.682408 -1.269618 -26.520335 3.942687 12.201695 33.106460 -3.921177 4.755262 -23.246231 0.000000 0.000000 0.000000 -26.125554 4.215741 -4.962943 -55.342732 -1.335306 -9.018145 -7.894695 -27.490665 3.513959 0.000000 0.000000 0.000000 21.661127 4.260035 2.349003 56.613426 8.448585 -5.165029 0.339922 34.731869 2.398712 0.000000 0.000000 0.000000 
0.008461 0.992341 0.109784 1.493856 -15.222035 -4.437377 6.344560 2.172993 -50.826317 -8.525958 9.820571 67.393721 5.430136 10.311214 -2.852986 0.000000 0.000000 0.000000 -2.547775 -0.320077 9.805961 1.604449 0.784076 16.514314 4.719594 0.102800 15.012314 0.000000 0.000000 0.000000 -10.472229 1.739891 19.643430 7.787852 -1.295457 -26.223635 4.262661 12.795115 33.817812 -2.871228 4.122772 -24.831228 0.000000 0.000000 0.000000 -25.640812 3.063803 -4.265605 -55.199491 -2.831494 -8.342537 -8.149008 -30.070326 3.938618 0.000000 0.000000 0.000000 21.343917 4.562628 2.611702 56.709788 7.647419 -5.533106 1.096045 34.757315 2.625313 0.000000 0.000000 0.000000 
0.013543 1.032164 0.136112 0.652205 -15.567242 -2.423082 5.184259 1.330306 -47.437194 -7.257323 8.299510 62.563461 5.489939 10.748048 -1.341424 0.000000 0.000000 0.000000 -3.301876 -0.143973 7.480879 1.390773 0.855812 16.625933 8.898810 0.810547 26.397636 0.000000 0.000000 0.000000 -10.801241 1.691683 17.990939 8.210424 -1.431601 -25.423128 4.553851 13.065521 33.662827 -3.077337 4.234110 -26.633868 0.000000 0.000000 0.000000 -24.701155 3.149778 -4.259488 -56.163345 -4.396303 -7.701976 -10.025901 -32.405504 4.842437 0.000000 0.000000 0.000000 19.149510 4.009477 2.257221 57.431009 7.360954 -5.566237 4.493623 33.317861 3.415597 0.000000 0.000000 0.000000 
0.018618 1.073989 0.160538 -0.039057 -13.779433 -0.448932 3.703802 -0.012761 -43.952181 -6.252242 6.283276 57.109360 5.424712 10.686614 -1.622503 0.000000 0.000000 0.000000 -3.218205 0.031118 2.484858 2.084540 0.948058 20.346037 8.536448 -2.547908 34.215263 0.000000 0.000000 0.000000 -10.904633 1.650402 17.673057 7.880131 -1.231202 -26.056457 5.225181 9.980936 33.154052 -3.083213 3.838503 -26.437092 0.000000 0.000000 0.000000 -24.749077 2.881759 -3.509149 -55.453730 -7.169883 -6.422697 -11.447726 -34.366965 5.773446 0.000000 0.000000 0.000000 17.254861 4.254270 1.869974 58.348778 5.587473 -6.270721 4.897971 32.155689 3.195496 0.000000 0.000000 0.000000 
0.022655 1.111098 0.182097 -1.074533 -12.437831 0.068027 3.503090 -0.565795 -38.420167 -5.674881 4.688175 49.666986 4.715693 9.586151 -0.055385 0.000000 0.000000 0.000000 -2.780518 0.338694 -2.920619 3.609252 1.152932 28.967094 4.873222 -6.943652 35.260440 0.000000 0.000000 0.000000 -10.331579 1.565573 18.520160 8.689047 -1.248248 -27.004804 4.359829 8.730283 33.495908 -3.353378 3.927825 -28.116577 0.000000 0.000000 0.000000 -25.232104 1.265309 -2.417350 -53.268189 -9.620292 -5.241221 -11.817965 -38.358790 6.653369 0.000000 0.000000 0.000000 16.676899 3.585964 1.426324 58.286966 5.098750 -6.501536 5.771099 32.684969 3.468192 0.000000 0.000000 0.000000 
0.025061 1.144989 0.201395 -1.395560 -11.412355 -0.243026 3.432707 -0.842052 -32.298858 -5.787077 3.736806 42.012581 4.072445 8.575331 1.145751 0.000000 0.000000 0.000000 -2.372222 0.716991 -7.639707 5.532262 1.344365 41.632336 1.610329 -9.244289 30.298115 0.000000 0.000000 0.000000 -9.536989 1.367291 18.765374 8.053767 -1.174990 -26.616018 4.021934 6.366691 32.685570 -2.022587 2.802317 -26.978884 0.000000 0.000000 0.000000 -25.381897 1.906470 -2.243492 -51.670009 -10.684870 -4.776302 -11.773138 -42.563013 7.679124 0.000000 0.000000 0.000000 16.267793 3.931240 1.199213 58.246722 5.192374 -6.380520 5.003863 31.867493 3.011009 0.000000 0.000000 0.000000 
0.025826 1.180384 0.218416 -1.930653 -9.365158 -0.701810 3.975269 -0.850483 -24.331626 -6.718521 2.727040 30.261262 3.105467 7.161765 3.248648 0.000000 0.000000 0.000000 -2.343013 1.067149 -11.517403 8.570315 -0.165093 50.456867 -1.984683 -12.746580 26.740828 0.000000 0.000000 0.000000 -8.582247 1.044280 18.322285 9.090462 -1.302273 -27.212445 2.321049 4.166776 33.333812 -1.364840 2.208135 -26.921495 0.000000 0.000000 0.000000 -25.572389 1.641521 -1.656655 -50.391413 -13.454536 -3.811969 -8.971549 -44.712550 7.148595 0.000000 0.000000 0.000000 16.598280 2.058219 0.018779 59.112019 4.847702 -6.740431 5.123470 32.347947 3.093327 0.000000 0.000000 0.000000 
0.025097 1.209408 0.233565 -2.626170 -8.867926 -0.785788 5.145827 -0.525157 -17.137272 -7.858696 2.214318 19.511081 2.266669 6.541291 7.713709 0.000000 0.000000 0.000000 -1.929924 1.403716 -14.561373 10.651964 -1.448039 56.252356 -4.071269 -14.605141 20.745069 0.000000 0.000000 0.000000 -7.251841 0.717281 17.373386 9.984932 -1.410371 -27.734409 0.537040 2.957592 33.487695 -0.096888 1.187276 -25.252021 0.000000 0.000000 0.000000 -24.915298 2.818015 -1.992243 -50.036009 -13.972025 -3.711825 -7.863729 -46.918615 7.298390 0.000000 0.000000 0.000000 17.617811 1.254480 -0.711518 59.119655 4.105366 -7.117808 4.556907 32.745146 2.919979 0.000000 0.000000 0.000000 
0.022913 1.231846 0.247217 -3.127101 -7.674318 -0.814814 5.113266 -0.414912 -11.229673 -7.421217 1.433081 10.401220 1.389789 6.256658 12.920780 0.000000 0.000000 0.000000 -2.154970 1.664168 -17.417029 11.774901 -2.652867 57.021774 -4.150622 -14.394849 19.174376 0.000000 0.000000 0.000000 -6.701250 0.537159 16.437089 10.637716 -1.459279 -28.328242 -0.455354 0.305377 33.568978 -0.852970 1.270999 -25.026875 0.000000 0.000000 0.000000 -25.045721 4.641222 -2.497786 -49.237535 -15.361473 -3.313536 -7.382406 -47.150441 7.481260 0.000000 0.000000 0.000000 17.167620 0.884406 -1.326903 60.503218 3.064749 -7.786872 3.437686 34.435370 2.644936 0.000000 0.000000 0.000000 
